<svg width="89" height="55" viewBox="0 0 89 55" fill="none" xmlns="http://www.w3.org/2000/svg">
<path d="M8.86279 1.55127C10.2036 -0.159571 12.7463 -0.512324 14.5337 0.777832C16.321 2.06813 16.681 4.50423 15.3403 6.21924C5.67111 18.5703 5.67101 35.8275 15.3403 48.1782C16.6809 49.8933 16.3212 52.3294 14.5337 53.6196C12.7538 54.9007 10.21 54.5682 8.86279 52.8452C-2.95427 37.7432 -2.95427 16.6533 8.86279 1.55127ZM74.4741 0.775879C76.2617 -0.5104 78.8084 -0.160863 80.145 1.55029C91.9619 16.6523 91.9619 37.7413 80.145 52.8433C78.8 54.5637 76.2576 54.9008 74.4741 53.6177C72.6866 52.3277 72.3268 49.8913 73.6675 48.1763C83.3367 35.8252 83.3367 18.5681 73.6675 6.21729C72.3268 4.50221 72.6866 2.06614 74.4741 0.775879ZM59.9155 8.76611C61.5763 7.33945 64.1431 7.46783 65.6343 9.06885C75.2839 19.4049 75.2839 35.0011 65.6343 45.3374C64.1423 46.9387 61.575 47.0689 59.9155 45.6401C58.2509 44.2098 58.1086 41.7512 59.5991 40.1538C66.4885 32.7697 66.4885 21.6365 59.5991 14.2524C58.1086 12.6551 58.2509 10.1967 59.9155 8.76611ZM23.3696 9.06689C24.8645 7.46942 27.4353 7.3403 29.0884 8.76318C30.7531 10.1936 30.8954 12.6521 29.4048 14.2495C22.5154 21.6336 22.5154 32.7668 29.4048 40.1509C30.8954 41.7483 30.7531 44.2066 29.0884 45.6372C27.4292 47.0657 24.8621 46.9364 23.3696 45.3345C13.72 34.9985 13.7202 19.4032 23.3696 9.06689ZM44.5063 15.5435C51.2055 15.5436 56.6548 20.7721 56.6548 27.1997C56.6547 33.6273 51.2058 38.8558 44.5063 38.856C37.8071 38.856 32.357 33.6274 32.3569 27.1997C32.3569 20.772 37.807 15.5435 44.5063 15.5435Z" fill="white"/>
</svg>
