<svg width="101" height="161" viewBox="0 0 101 161" fill="none" xmlns="http://www.w3.org/2000/svg">
<path d="M74.149 157.833C92.5092 164.945 99.9698 158.207 99.9698 153.962C93.4665 153.411 77.9314 152.521 74.149 157.833ZM50.8516 152.021C60.2632 158.941 73.301 158.025 81.6565 149.862C75.3977 148.125 58.2914 146.059 50.8516 152.021ZM81.901 138.208C81.209 147.053 90.2616 152.021 100.043 152.739C98.2581 143.848 89.1275 139.873 81.901 138.208ZM64.368 130.056C63.3327 133.838 64.7582 144.098 78.821 148.171C78.2175 141.242 74.534 132.22 64.368 130.056ZM36.4714 140.347C43.9164 147.771 55.6016 148.817 64.2484 142.828C58.6087 139.925 45.0714 135.997 36.4714 140.347ZM51.3354 119.874C49.4104 123.599 48.9994 134.208 61.4546 140.591C62.1777 133.765 59.4307 122.085 51.3354 119.874ZM20.5253 124C22.8977 128.662 27.0754 132.147 32.0856 133.64C37.0489 135.097 42.4025 134.405 46.8299 131.726C38.9791 124.349 26.4511 121.513 20.5253 124ZM39.1456 104.219C33.5579 113.964 39.463 125.093 45.6021 129.66C48.3335 120.608 45.8258 110.738 39.1456 104.219ZM10.1668 103.798C9.49049 118.933 25.2961 118.111 32.7151 118.209C30.3791 115.031 17.3933 103.502 10.1668 103.798ZM29.6508 89.6625C26.7165 92.8933 22.3098 105.317 32.0648 115.452C35.1239 108.121 35.7951 96.8681 29.6508 89.6625ZM1.88421 82.9563C1.37955 95.1773 11.6652 101.363 21.5867 101.264C18.6055 95.375 10.6299 84.0228 1.88421 82.9563ZM22.7 74.5332C16.1187 78.4039 16.8678 90.9059 20.749 97.4144C25.1088 91.3533 28.3605 83.8251 22.7 74.5332ZM1.44719 63.0821C-1.80447 74.2106 7.758 81.7388 13.4913 82.384C12.0242 77.0669 10.0992 67.6501 1.44719 63.0821ZM21.4878 59.3779C14.2353 63.0093 10.8016 71.6977 13.5173 79.5277C18.5743 75.4488 24.6666 66.828 21.4878 59.3779ZM1.10902 45.9134C-3.37047 59.4507 6.91517 63.8781 10.7443 64.9655C10.2865 59.2062 6.62383 47.7239 1.10902 45.9134ZM21.2017 42.36C18.2622 43.208 9.88069 50.0859 11.3947 62.411C16.9147 59.305 23.6105 53.3896 21.2017 42.36ZM4.14737 25.3941C-0.862788 42.0374 7.49787 48.8685 10.2397 50.2316C10.6767 44.9665 11.2074 32.6726 4.14737 25.3941ZM22.6948 25.8104C17.4453 27.2775 10.8172 36.918 11.1293 46.1839C16.332 43.8011 24.1151 33.8901 22.6948 25.8104ZM21.1288 0C8.93901 12.5956 7.23254 22.5327 10.7911 34.7797C16.3112 29.8112 20.7178 14.9056 21.1288 0Z" fill="white" fill-opacity="0.11"/>
</svg>
